<svg version="1.1" xmlns="http://www.w3.org/2000/svg" viewBox="0 0 60.591 60.591"><path d="M6.492,48.422h18.772l2.913-6.548c1.17-2.627,3.141-2.663,4.401-0.077l3.234,6.625H54.1c3.585,0,6.491-2.907,6.491-6.491 V31.328L42.816,13.012c-0.999-1.029-2.877-1.24-3.456,0.071c-0.463,1.046-0.841,2.637-0.841,5.046c0,1.963,0.284,3.17,0.672,3.903 c0.673,1.267,1.894-0.22,2.206-1.619c0.216-0.976,0.751-1.756,1.988-1.31c2.706,0.974,7.574,12.226,7.574,12.226H9.63 c0,0,4.869-11.251,7.574-12.226c1.239-0.445,1.773,0.334,1.989,1.31c0.312,1.399,1.534,2.885,2.206,1.619 c0.388-0.733,0.673-1.938,0.673-3.903c0-2.408-0.379-3.999-0.843-5.046c-0.579-1.311-2.456-1.1-3.454-0.071L0,31.328v10.603 C0,45.515,2.906,48.422,6.492,48.422z M36.841,34.356h21.206v5.518c0,3.048-2.905,5.52-6.491,5.52H36.841V34.356z M2.813,34.573 h21.206V45.61H9.306c-3.585,0-6.491-2.472-6.491-5.518v-5.52H2.813z" fill="#fff"/></svg>
